<svg xmlns="http://www.w3.org/2000/svg" width="1280" height="760" viewBox="0 0 1280 760" role="img" aria-labelledby="title desc">
  <title id="title">RevCycleMGMT app shell proof</title>
  <desc id="desc">Generated SVG showing the No-PHI Launch Workspace, roadmap navigation, dashboard metrics, and synthetic-only boundary.</desc>
  <defs>
    <linearGradient id="bg" x1="0" x2="1" y1="0" y2="1">
      <stop stop-color="#071012" offset="0" />
      <stop stop-color="#123238" offset="1" />
    </linearGradient>
  </defs>
  <rect width="1280" height="760" fill="url(#bg)" />
  <rect x="26" y="26" width="1228" height="708" rx="18" fill="#0a1418" stroke="#21414a" />
  <rect x="34" y="34" width="332" height="692" rx="14" fill="#091316" stroke="#1f3941" />
  <text x="54" y="82" fill="#7dd3d8" font-size="28" font-weight="900">RevCycleMGMT</text>
  <text x="54" y="112" fill="#9ab5b5" font-size="13" letter-spacing="2">NO-PHI APP SHELL</text>
  <rect x="54" y="236" width="292" height="42" rx="8" fill="#0d1a1f" stroke="#00B3A4" /><text x="72" y="261" fill="#f4fbfa" font-size="15" font-weight="700">Launch Workspace</text><text x="257" y="261" fill="#9ab5b5" font-size="11" text-anchor="end">Live intake</text><rect x="54" y="286" width="292" height="42" rx="8" fill="#0d1a1f" stroke="#00B3A4" /><text x="72" y="311" fill="#f4fbfa" font-size="15" font-weight="700">Claims Pipeline Mapper</text><text x="257" y="311" fill="#9ab5b5" font-size="11" text-anchor="end">Live workspace</text><rect x="54" y="336" width="292" height="42" rx="8" fill="#0d1a1f" stroke="#00B3A4" /><text x="72" y="361" fill="#f4fbfa" font-size="15" font-weight="700">KPI Dashboard</text><text x="257" y="361" fill="#9ab5b5" font-size="11" text-anchor="end">Live workspace</text><rect x="54" y="386" width="292" height="42" rx="8" fill="#0d1a1f" stroke="#00B3A4" /><text x="72" y="411" fill="#f4fbfa" font-size="15" font-weight="700">EDI Validation</text><text x="257" y="411" fill="#9ab5b5" font-size="11" text-anchor="end">Live workspace</text><rect x="54" y="436" width="292" height="42" rx="8" fill="#0d1a1f" stroke="#31545c" /><text x="72" y="461" fill="#f4fbfa" font-size="15" font-weight="700">Coding Readiness</text><text x="257" y="461" fill="#9ab5b5" font-size="11" text-anchor="end">Coming next</text><rect x="54" y="486" width="292" height="42" rx="8" fill="#0d1a1f" stroke="#31545c" /><text x="72" y="511" fill="#f4fbfa" font-size="15" font-weight="700">Clearinghouse Response Tracker</text><text x="257" y="511" fill="#9ab5b5" font-size="11" text-anchor="end">Requires agreement</text><rect x="54" y="536" width="292" height="42" rx="8" fill="#0d1a1f" stroke="#31545c" /><text x="72" y="561" fill="#f4fbfa" font-size="15" font-weight="700">835 Matchback</text><text x="257" y="561" fill="#9ab5b5" font-size="11" text-anchor="end">Coming next</text><rect x="54" y="586" width="292" height="42" rx="8" fill="#0d1a1f" stroke="#31545c" /><text x="72" y="611" fill="#f4fbfa" font-size="15" font-weight="700">Denial Workqueues</text><text x="257" y="611" fill="#9ab5b5" font-size="11" text-anchor="end">Coming next</text><rect x="54" y="636" width="292" height="42" rx="8" fill="#0d1a1f" stroke="#31545c" /><text x="72" y="661" fill="#f4fbfa" font-size="15" font-weight="700">Evidence/Compliance</text><text x="257" y="661" fill="#9ab5b5" font-size="11" text-anchor="end">Requires agreement</text><rect x="54" y="686" width="292" height="42" rx="8" fill="#0d1a1f" stroke="#31545c" /><text x="72" y="711" fill="#f4fbfa" font-size="15" font-weight="700">MCP Site QA Console</text><text x="257" y="711" fill="#9ab5b5" font-size="11" text-anchor="end">Internal QA</text>
  <text x="400" y="82" fill="#00B3A4" font-size="13" font-weight="800" letter-spacing="2">REVENUE INFRASTRUCTURE FOR INDEPENDENT HEALTHCARE PRACTICES</text>
  <text x="400" y="126" fill="#f4fbfa" font-size="40" font-weight="900">Launch Workspace + Dashboard Proof</text>
  <rect x="1010" y="74" width="184" height="42" rx="21" fill="#00B3A4" />
  <text x="1102" y="101" fill="#021415" font-size="15" font-weight="900" text-anchor="middle">Synthetic only</text>
  <rect x="400" y="166" width="330" height="132" rx="14" fill="#101b20" stroke="#21414a" />
  <text x="424" y="204" fill="#9ab5b5" font-size="14">Launch readiness</text>
  <text x="424" y="266" fill="#7dd3d8" font-size="64" font-weight="900">93</text>
  <rect x="762" y="166" width="430" height="132" rx="14" fill="#101b20" stroke="#21414a" />
  <text x="786" y="204" fill="#9ab5b5" font-size="14">First recommended build</text>
  <text x="786" y="244" fill="#f4fbfa" font-size="25" font-weight="800">Claims Pipeline Mapper + Dashboard Proof</text>
  <text x="786" y="276" fill="#00B3A4" font-size="16">Dashboard Proof remains the visual anchor.</text>
  <rect x="400" y="318" width="792" height="224" rx="14" fill="#101b20" stroke="#21414a" />
  <text x="424" y="354" fill="#f4fbfa" font-size="24" font-weight="900">Generated readiness checklist</text>
  <circle cx="418" cy="331" r="5" fill="#00B3A4" /><text x="434" y="336" fill="#d8e7e5" font-size="15">Confirm no-PHI discovery scope before any file intake.</text><circle cx="418" cy="365" r="5" fill="#00B3A4" /><text x="434" y="370" fill="#d8e7e5" font-size="15">Prepare a paid design-partner scope for the first 30-day workflow build.</text><circle cx="418" cy="399" r="5" fill="#00B3A4" /><text x="434" y="404" fill="#d8e7e5" font-size="15">Map current EHR/PM, billing, payer-response, remit, and dashboard handoffs.</text><circle cx="418" cy="433" r="5" fill="#00B3A4" /><text x="434" y="438" fill="#d8e7e5" font-size="15">Select the first synthetic claim journey to mirror during launch planning.</text><circle cx="418" cy="467" r="5" fill="#00B3A4" /><text x="434" y="472" fill="#d8e7e5" font-size="15">Document denial categories and owner queues before automation work starts.</text>
  <rect x="400" y="586" width="154" height="82" rx="10" fill="#071316" stroke="#21414a" /><text x="416" y="616" fill="#9ab5b5" font-size="13">Claims</text><text x="416" y="648" fill="#7dd3d8" font-size="26" font-weight="800">772</text><rect x="570" y="586" width="154" height="82" rx="10" fill="#071316" stroke="#21414a" /><text x="586" y="616" fill="#9ab5b5" font-size="13">Clean claim</text><text x="586" y="648" fill="#7dd3d8" font-size="26" font-weight="800">91.6%</text><rect x="740" y="586" width="154" height="82" rx="10" fill="#071316" stroke="#21414a" /><text x="756" y="616" fill="#9ab5b5" font-size="13">Rejection</text><text x="756" y="648" fill="#7dd3d8" font-size="26" font-weight="800">4.3%</text><rect x="910" y="586" width="154" height="82" rx="10" fill="#071316" stroke="#21414a" /><text x="926" y="616" fill="#9ab5b5" font-size="13">835 match</text><text x="926" y="648" fill="#7dd3d8" font-size="26" font-weight="800">80.4%</text>
  <text x="400" y="710" fill="#9ab5b5" font-size="15">Functional now: Launch Workspace, Claims Pipeline Mapper, KPI Dashboard, and EDI Validation. Roadmap modules remain no-PHI.</text>
</svg>