<svg xmlns="http://www.w3.org/2000/svg" width="1280" height="780" viewBox="0 0 1280 780" role="img" aria-labelledby="title desc">
  <title id="title">RevCycleMGMT Claims Pipeline Mapper proof</title>
  <desc id="desc">Synthetic four-view claims pipeline workspace: timeline, ownership map, stuck-point inventory, and first 30-day action plan.</desc>
  <defs>
    <linearGradient id="bg" x1="0" x2="1" y1="0" y2="1">
      <stop stop-color="#071012" offset="0"/>
      <stop stop-color="#13343a" offset="1"/>
    </linearGradient>
    <style>
      .title { font: 900 42px Inter, Arial, sans-serif; fill: #f8fafc; }
      .subtitle { font: 600 17px Inter, Arial, sans-serif; fill: #cbd5e1; }
      .kicker { font: 900 12px Inter, Arial, sans-serif; fill: #7dd3d8; letter-spacing: .12em; text-transform: uppercase; }
      .metric { font: 900 30px Inter, Arial, sans-serif; fill: #ffffff; }
      .small { font: 700 14px Inter, Arial, sans-serif; fill: #d9fffd; }
      .tiny { font: 600 12px Inter, Arial, sans-serif; fill: #cbd5e1; }
      .strong { font-weight: 900; fill: #f8fafc; }
      .node { font: 900 17px Inter, Arial, sans-serif; fill: #031719; }
    </style>
  </defs>
  <rect width="1280" height="780" fill="url(#bg)"/>
  <rect x="28" y="28" width="1224" height="724" rx="18" fill="#091316" stroke="#21414a"/>
  <text x="58" y="76" class="kicker">Claims Pipeline Mapper | Synthetic only</text>
  <text x="58" y="124" class="title">See where claims move, stall, and need owners.</text>
  <text x="58" y="154" class="subtitle">Four production-style views generated from synthetic claim paths: timeline, ownership, stuck points, and first 30-day operating plan.</text>
  <rect x="58" y="178" width="1162" height="172" rx="14" fill="#101b20" stroke="#21414a"/>
  <text x="80" y="210" class="kicker">Claim Path Timeline: Denied CARC 16</text>
  <circle cx="80" cy="238" r="24" fill="#00B3A4"/><text x="80" y="244" class="node" text-anchor="middle">1</text><text x="38" y="286" class="tiny strong">Eligibility check</text><text x="38" y="305" class="tiny">paid | 0d</text><text x="38" y="324" class="tiny">Front desk</text><path d="M130 238 L200 238" stroke="#31545c" stroke-width="5" stroke-linecap="round"/><circle cx="228" cy="238" r="24" fill="#00B3A4"/><text x="228" y="244" class="node" text-anchor="middle">2</text><text x="186" y="286" class="tiny strong">Charge capture</text><text x="186" y="305" class="tiny">paid | 0d</text><text x="186" y="324" class="tiny">Clinical ops</text><path d="M278 238 L348 238" stroke="#31545c" stroke-width="5" stroke-linecap="round"/><circle cx="376" cy="238" r="24" fill="#00B3A4"/><text x="376" y="244" class="node" text-anchor="middle">3</text><text x="334" y="286" class="tiny strong">Coding</text><text x="334" y="305" class="tiny">paid | 1d</text><text x="334" y="324" class="tiny">Coder</text><path d="M426 238 L496 238" stroke="#31545c" stroke-width="5" stroke-linecap="round"/><circle cx="524" cy="238" r="24" fill="#00B3A4"/><text x="524" y="244" class="node" text-anchor="middle">4</text><text x="482" y="286" class="tiny strong">837P submission</text><text x="482" y="305" class="tiny">paid | 1d</text><text x="482" y="324" class="tiny">Biller</text><path d="M574 238 L644 238" stroke="#31545c" stroke-width="5" stroke-linecap="round"/><circle cx="672" cy="238" r="24" fill="#00B3A4"/><text x="672" y="244" class="node" text-anchor="middle">5</text><text x="630" y="286" class="tiny strong">999 acknowledgment</text><text x="630" y="305" class="tiny">paid | 1d</text><text x="630" y="324" class="tiny">Biller</text><path d="M722 238 L792 238" stroke="#31545c" stroke-width="5" stroke-linecap="round"/><circle cx="820" cy="238" r="24" fill="#00B3A4"/><text x="820" y="244" class="node" text-anchor="middle">6</text><text x="778" y="286" class="tiny strong">277CA acceptance</text><text x="778" y="305" class="tiny">paid | 2d</text><text x="778" y="324" class="tiny">AR follow-up</text><path d="M870 238 L940 238" stroke="#31545c" stroke-width="5" stroke-linecap="round"/><circle cx="968" cy="238" r="24" fill="#fb7185"/><text x="968" y="244" class="node" text-anchor="middle">7</text><text x="926" y="286" class="tiny strong">835 remit</text><text x="926" y="305" class="tiny">denied | 9d</text><text x="926" y="324" class="tiny">Denials specialist</text><path d="M1018 238 L1088 238" stroke="#31545c" stroke-width="5" stroke-linecap="round"/><circle cx="1116" cy="238" r="24" fill="#facc15"/><text x="1116" y="244" class="node" text-anchor="middle">8</text><text x="1074" y="286" class="tiny strong">Payment posting</text><text x="1074" y="305" class="tiny">stuck | 9d</text><text x="1074" y="324" class="tiny">Denials specialist</text>
  <rect x="58" y="366" width="330" height="318" rx="14" fill="#101b20" stroke="#21414a"/>
  <text x="74" y="396" class="kicker">Ownership Map</text>
  <rect x="58" y="386" width="330" height="42" rx="8" fill="#071316" stroke="#21414a"/><text x="74" y="411" class="small">Eligibility check</text><text x="246" y="411" class="small strong">Front desk</text><text x="354" y="411" class="small">36</text><rect x="58" y="438" width="330" height="42" rx="8" fill="#1b1014" stroke="#fb7185"/><text x="74" y="463" class="small">Charge capture</text><text x="246" y="463" class="small strong">Clinical ops</text><text x="354" y="463" class="small">18</text><rect x="58" y="490" width="330" height="42" rx="8" fill="#071316" stroke="#21414a"/><text x="74" y="515" class="small">Coding</text><text x="246" y="515" class="small strong">Coder</text><text x="354" y="515" class="small">27</text><rect x="58" y="542" width="330" height="42" rx="8" fill="#071316" stroke="#21414a"/><text x="74" y="567" class="small">837P submission</text><text x="246" y="567" class="small strong">Biller</text><text x="354" y="567" class="small">42</text><rect x="58" y="594" width="330" height="42" rx="8" fill="#1b1014" stroke="#fb7185"/><text x="74" y="619" class="small">999 acknowledgment</text><text x="246" y="619" class="small strong">Biller</text><text x="354" y="619" class="small">11</text>
  <rect x="420" y="366" width="390" height="318" rx="14" fill="#101b20" stroke="#21414a"/>
  <text x="436" y="396" class="kicker">Stuck-Point Inventory</text>
  <rect x="420" y="386" width="390" height="42" rx="8" fill="#071316" stroke="#21414a"/><text x="436" y="411" class="small strong">Eligibility mismatch</text><text x="620" y="411" class="small">18 | 6d</text><text x="724" y="411" class="small">$4,860</text><rect x="420" y="438" width="390" height="42" rx="8" fill="#071316" stroke="#21414a"/><text x="436" y="463" class="small strong">Missing documentation</text><text x="620" y="463" class="small">11 | 8d</text><text x="724" y="463" class="small">$3,375</text><rect x="420" y="490" width="390" height="42" rx="8" fill="#071316" stroke="#21414a"/><text x="436" y="515" class="small strong">999 reject</text><text x="620" y="515" class="small">7 | 3d</text><text x="724" y="515" class="small">$1,540</text><rect x="420" y="542" width="390" height="42" rx="8" fill="#071316" stroke="#21414a"/><text x="436" y="567" class="small strong">277CA reject</text><text x="620" y="567" class="small">9 | 5d</text><text x="724" y="567" class="small">$2,610</text><rect x="420" y="594" width="390" height="42" rx="8" fill="#071316" stroke="#21414a"/><text x="436" y="619" class="small strong">Denial pending appeal</text><text x="620" y="619" class="small">13 | 14d</text><text x="724" y="619" class="small">$6,820</text>
  <rect x="842" y="366" width="372" height="318" rx="14" fill="#101b20" stroke="#21414a"/>
  <text x="858" y="396" class="kicker">First 30-Day Action Plan</text>
  <rect x="842" y="386" width="372" height="42" rx="8" fill="#071316" stroke="#21414a"/><text x="858" y="404" class="tiny strong">Days 1-3 | Operations lead | Low</text><text x="858" y="420" class="tiny">Name one accountable owner for every unassigned stage.</text><rect x="842" y="438" width="372" height="42" rx="8" fill="#071316" stroke="#21414a"/><text x="858" y="456" class="tiny strong">Days 4-7 | Biller | Medium</text><text x="858" y="472" class="tiny">Stand up daily 999 and 277CA review for rejected synthetic cohorts.</text><rect x="842" y="490" width="372" height="42" rx="8" fill="#071316" stroke="#21414a"/><text x="858" y="508" class="tiny strong">Days 8-12 | Coder | Medium</text><text x="858" y="524" class="tiny">Create coding-readiness checklist for missing documentation cohorts.</text><rect x="842" y="542" width="372" height="42" rx="8" fill="#071316" stroke="#21414a"/><text x="858" y="560" class="tiny strong">Days 13-18 | Denials specialist | Medium</text><text x="858" y="576" class="tiny">Build denial and remit variance workqueues by owner, age, and dollars at</text><rect x="842" y="594" width="372" height="42" rx="8" fill="#071316" stroke="#21414a"/><text x="858" y="612" class="tiny strong">Days 19-24 | Posting | Medium</text><text x="858" y="628" class="tiny">Install posting cadence for 835 matchback and responsibility balance sep</text>
  <rect x="58" y="704" width="1162" height="30" rx="15" fill="#00B3A4"/>
  <text x="640" y="724" text-anchor="middle" fill="#021415" font-size="14" font-weight="900">All IDs, payer labels, dollar figures, and claim events are synthetic demo data.</text>
</svg>