<svg xmlns="http://www.w3.org/2000/svg" width="1280" height="720" viewBox="0 0 1280 720" role="img" aria-labelledby="title desc">
  <title id="title">RevCycleMGMT synthetic RCM dashboard control room</title>
  <desc id="desc">Synthetic claims, clean-claim, rejection, denial, remit match, A/R risk, queue, and payer visibility dashboard.</desc>
  <defs>
    <radialGradient id="tealGlow" cx="18%" cy="8%" r="64%">
      <stop offset="0%" stop-color="#83f7f4" stop-opacity=".16"/>
      <stop offset="55%" stop-color="#00B3A4" stop-opacity=".06"/>
      <stop offset="100%" stop-color="#020607" stop-opacity="1"/>
    </radialGradient>
    <linearGradient id="panel" x1="0" x2="1">
      <stop offset="0%" stop-color="#071012" stop-opacity=".96"/>
      <stop offset="100%" stop-color="#0b1416" stop-opacity=".86"/>
    </linearGradient>
    <filter id="glow">
      <feGaussianBlur stdDeviation="4" result="blur"/>
      <feMerge>
        <feMergeNode in="blur"/>
        <feMergeNode in="SourceGraphic"/>
      </feMerge>
    </filter>
    <style>
      .title { font: 900 44px Inter, Arial, sans-serif; fill: #f8fafc; }
      .subtitle { font: 500 18px Inter, Arial, sans-serif; fill: #cbd5e1; }
      .kicker { font: 900 12px Inter, Arial, sans-serif; fill: #83f7f4; letter-spacing: .12em; text-transform: uppercase; }
      .metric { font: 900 31px Inter, Arial, sans-serif; fill: #ffffff; }
      .small { font: 700 15px Inter, Arial, sans-serif; fill: #d9fffd; }
      .tiny { font: 600 12px Inter, Arial, sans-serif; fill: #cbd5e1; }
      .muted { font: 600 12px Inter, Arial, sans-serif; fill: #94a3b8; }
      .readout { font: 600 17px Inter, Arial, sans-serif; fill: #e2e8f0; }
      .strong { font-weight: 900; fill: #f8fafc; }
    </style>
  </defs>
  <rect width="1280" height="720" fill="#020607"/>
  <rect width="1280" height="720" fill="url(#tealGlow)"/>
  <path d="M0 650 C170 600 310 716 482 664 C690 600 821 706 1048 638 C1168 602 1230 620 1280 588 L1280 720 L0 720 Z" fill="#00B3A4" opacity=".06"/>
  <rect x="28" y="28" width="1224" height="664" rx="18" fill="url(#panel)" stroke="#164e53"/>
  <text x="56" y="78" class="kicker">Synthetic RCM Operating Dashboard</text>
  <text x="56" y="126" class="title">First-patient-to-first-payment control room.</text>
  <text x="56" y="156" class="subtitle">Claims-to-payment visibility for launch practices: EDI friction, remits, payer behavior, A/R exposure, and support cadence.</text>
  <g filter="url(#glow)">
    <circle cx="1178" cy="84" r="7" fill="#83f7f4"/>
    <circle cx="1204" cy="84" r="7" fill="#00B3A4"/>
    <circle cx="1230" cy="84" r="7" fill="#facc15"/>
  </g>
  
      <g>
        <rect x="46" y="166" width="178" height="104" rx="10" fill="#081012" stroke="#164e53"/>
        <text x="62" y="194" class="kicker">Claims</text>
        <text x="62" y="228" class="metric">772</text>
        <text x="62" y="252" class="muted">synthetic volume</text>
      </g>
    

      <g>
        <rect x="242" y="166" width="178" height="104" rx="10" fill="#081012" stroke="#164e53"/>
        <text x="258" y="194" class="kicker">Clean Claim</text>
        <text x="258" y="228" class="metric">91.6%</text>
        <text x="258" y="252" class="muted">pre-payer quality</text>
      </g>
    

      <g>
        <rect x="438" y="166" width="178" height="104" rx="10" fill="#081012" stroke="#164e53"/>
        <text x="454" y="194" class="kicker">Rejection</text>
        <text x="454" y="228" class="metric">4.3%</text>
        <text x="454" y="252" class="muted">999 / 277CA friction</text>
      </g>
    

      <g>
        <rect x="634" y="166" width="178" height="104" rx="10" fill="#081012" stroke="#164e53"/>
        <text x="650" y="194" class="kicker">Denial</text>
        <text x="650" y="228" class="metric">4.3%</text>
        <text x="650" y="252" class="muted">payer pressure</text>
      </g>
    

      <g>
        <rect x="830" y="166" width="178" height="104" rx="10" fill="#081012" stroke="#164e53"/>
        <text x="846" y="194" class="kicker">Remit Match</text>
        <text x="846" y="228" class="metric">80.4%</text>
        <text x="846" y="252" class="muted">835 visibility</text>
      </g>
    

      <g>
        <rect x="1026" y="166" width="178" height="104" rx="10" fill="#081012" stroke="#164e53"/>
        <text x="1042" y="194" class="kicker">A/R Risk</text>
        <text x="1042" y="228" class="metric">$14.1K</text>
        <text x="1042" y="252" class="muted">current exposure</text>
      </g>
    
  <rect x="46" y="302" width="572" height="238" rx="14" fill="#061012" stroke="#164e53"/>
  <text x="70" y="326" class="kicker">Claim Movement</text>
  
            <g>
              <text x="70" y="358" class="small">837P ready</text>
              <rect x="190" y="340" width="378" height="22" rx="11" fill="#0f191b" stroke="#1b3f43"/>
              <rect x="190" y="340" width="360.0" height="22" rx="11" fill="#83f7f4" opacity=".88"/>
              <text x="586" y="357" class="small strong">772</text>
            </g>
            
            <g>
              <text x="70" y="406" class="small">Clean claims</text>
              <rect x="190" y="388" width="378" height="22" rx="11" fill="#0f191b" stroke="#1b3f43"/>
              <rect x="190" y="388" width="329.2" height="22" rx="11" fill="#00B3A4" opacity=".88"/>
              <text x="586" y="405" class="small strong">706</text>
            </g>
            
            <g>
              <text x="70" y="454" class="small">835 matched</text>
              <rect x="190" y="436" width="378" height="22" rx="11" fill="#0f191b" stroke="#1b3f43"/>
              <rect x="190" y="436" width="289.6" height="22" rx="11" fill="#facc15" opacity=".88"/>
              <text x="586" y="453" class="small strong">621</text>
            </g>
            
  <polyline points="70.0,488.0 88.5,489.6 106.9,492.9 125.4,496.0 143.8,498.6 162.3,501.4 180.8,503.2 199.2,506.3 217.7,508.9 236.2,510.7 254.6,513.8 273.1,516.6 291.5,519.2 310.0,522.0" fill="none" stroke="#83f7f4" stroke-width="3" opacity=".78"/>
  <polyline points="326.0,522.0 344.5,518.8 362.9,517.8 381.4,511.4 399.8,520.9 418.3,508.2 436.8,505.0 455.2,500.8 473.7,502.9 492.2,497.6 510.6,498.6 529.1,493.3 547.5,494.4 566.0,488.0" fill="none" stroke="#facc15" stroke-width="3" opacity=".78"/>
  <text x="70" y="532" class="muted">A/R exposure and remit match trend</text>
  <rect x="638" y="302" width="306" height="238" rx="14" fill="#061012" stroke="#164e53"/>
  <text x="662" y="326" class="kicker">Owner-Ready Workqueues</text>
  
            <g>
              <rect x="660" y="322" width="258" height="42" rx="8" fill="#0a1315" stroke="#173f43"/>
              <text x="676" y="340" class="small strong">A/R escalation</text>
              <text x="676" y="358" class="muted tiny">operations lead | critical | $18.1K</text>
            </g>
            
            <g>
              <rect x="660" y="376" width="258" height="42" rx="8" fill="#0a1315" stroke="#173f43"/>
              <text x="676" y="394" class="small strong">Payer enrollment watch</text>
              <text x="676" y="412" class="muted tiny">operations lead | high | $12.2K</text>
            </g>
            
            <g>
              <rect x="660" y="430" width="258" height="42" rx="8" fill="#0a1315" stroke="#173f43"/>
              <text x="676" y="448" class="small strong">Remit variance</text>
              <text x="676" y="466" class="muted tiny">posting lead | high | $8.9K</text>
            </g>
            
            <g>
              <rect x="660" y="484" width="258" height="42" rx="8" fill="#0a1315" stroke="#173f43"/>
              <text x="676" y="502" class="small strong">Coding readiness review</text>
              <text x="676" y="520" class="muted tiny">coding lead | high | $7.8K</text>
            </g>
            
  <rect x="944" y="302" width="288" height="238" rx="14" fill="#061012" stroke="#164e53"/>
  <text x="968" y="326" class="kicker">Payer A/R Risk</text>
  
            <g>
              <text x="964" y="340" class="tiny">Synthetic Payer B</text>
              <rect x="964" y="348" width="214" height="14" rx="7" fill="#0f191b" stroke="#1b3f43"/>
              <rect x="964" y="348" width="198.0" height="14" rx="7" fill="#83f7f4" opacity=".82"/>
              <text x="1188" y="360" class="tiny strong">$18.2K</text>
            </g>
            
            <g>
              <text x="964" y="382" class="tiny">Synthetic Payer D</text>
              <rect x="964" y="390" width="214" height="14" rx="7" fill="#0f191b" stroke="#1b3f43"/>
              <rect x="964" y="390" width="166.5" height="14" rx="7" fill="#83f7f4" opacity=".82"/>
              <text x="1188" y="402" class="tiny strong">$15.3K</text>
            </g>
            
            <g>
              <text x="964" y="424" class="tiny">Synthetic Payer C</text>
              <rect x="964" y="432" width="214" height="14" rx="7" fill="#0f191b" stroke="#1b3f43"/>
              <rect x="964" y="432" width="85.9" height="14" rx="7" fill="#83f7f4" opacity=".82"/>
              <text x="1188" y="444" class="tiny strong">$7.9K</text>
            </g>
            
            <g>
              <text x="964" y="466" class="tiny">Synthetic Payer A</text>
              <rect x="964" y="474" width="214" height="14" rx="7" fill="#0f191b" stroke="#1b3f43"/>
              <rect x="964" y="474" width="69.6" height="14" rx="7" fill="#83f7f4" opacity=".82"/>
              <text x="1188" y="486" class="tiny strong">$6.4K</text>
            </g>
            
            <g>
              <text x="964" y="508" class="tiny">Synthetic Payer E</text>
              <rect x="964" y="516" width="214" height="14" rx="7" fill="#0f191b" stroke="#1b3f43"/>
              <rect x="964" y="516" width="44.6" height="14" rx="7" fill="#83f7f4" opacity=".82"/>
              <text x="1188" y="528" class="tiny strong">$4.1K</text>
            </g>
            
  <rect x="46" y="566" width="1186" height="88" rx="14" fill="#071012" stroke="#164e53"/>
  <text x="70" y="588" class="kicker">Executive Readout</text>
  <text x="70" y="602" class="readout">772 synthetic claims were monitored across the launch window.</text><text x="70" y="626" class="readout">Clean-claim rate is 91.6% with denial rate at 4.3%.</text><text x="70" y="650" class="readout">Current A/R exposure is $14,100 with average payment lag of 5.6 days.</text>
</svg>
